<svg xmlns="http://www.w3.org/2000/svg" width="1000" height="940" viewBox="0 0 1000 940"><rect width="1000" height="940" fill="#fbfaf7"/>
<polygon points="200.00,690.00 668.00,690.00 887.71,276.78 419.71,276.78" fill="#ffffff" stroke="#111" stroke-width="3.5"/>
<line x1="200.00" y1="690.00" x2="887.71" y2="276.78" stroke="#2d6cdf" stroke-width="2.4" stroke-dasharray="8 6"/>
<line x1="668.00" y1="690.00" x2="419.71" y2="276.78" stroke="#2d6cdf" stroke-width="2.4" stroke-dasharray="8 6"/>
<line x1="887.71" y1="276.78" x2="200.00" y2="690.00" stroke="#2d6cdf" stroke-width="2.4" stroke-dasharray="8 6"/>
<line x1="419.71" y1="276.78" x2="668.00" y2="690.00" stroke="#2d6cdf" stroke-width="2.4" stroke-dasharray="8 6"/>
<polyline points="518.1,498.8 533.6,524.6 559.3,509.1" fill="none" stroke="#c0392b" stroke-width="2"/>
<circle cx="200.00" cy="690.00" r="5" fill="#111"/>
<text x="178.00" y="718.00" font-size="26" font-weight="700" fill="#111" text-anchor="middle" font-family="Georgia,serif">A</text>
<circle cx="668.00" cy="690.00" r="5" fill="#111"/>
<text x="690.00" y="718.00" font-size="26" font-weight="700" fill="#111" text-anchor="middle" font-family="Georgia,serif">B</text>
<circle cx="887.71" cy="276.78" r="5" fill="#111"/>
<text x="911.71" y="264.78" font-size="26" font-weight="700" fill="#111" text-anchor="middle" font-family="Georgia,serif">C</text>
<circle cx="419.71" cy="276.78" r="5" fill="#111"/>
<text x="395.71" y="264.78" font-size="26" font-weight="700" fill="#111" text-anchor="middle" font-family="Georgia,serif">D</text>
<circle cx="543.86" cy="483.39" r="5" fill="#e8563f"/>
<text x="575.86" y="491.39" font-size="23" font-weight="700" fill="#c0392b" text-anchor="middle" font-family="Georgia,serif">O</text>
<text x="60" y="52" font-size="27" font-weight="700" font-family="Georgia,serif" fill="#111">Если ABCD — ромб</text>
<text x="60" y="86" font-size="20" font-family="Georgia,serif" fill="#555">биссектрисы совпадают с диагоналями и сходятся в центре O</text>
<text x="60" y="900" font-size="19" font-family="Georgia,serif" fill="#c0392b">K = L = M = N = O ⇒ прямоугольник стягивается в точку</text>
</svg>